<svg id="Layer_1" enable-background="new 0 0 480.003 480.003" height="512" viewBox="0 0 480.003 480.003" width="512" xmlns="http://www.w3.org/2000/svg"><path d="m362.001 56.003h-120v-40c0-8.837-7.163-16-16-16h-79c-8.837 0-16 7.163-16 16v40h-13c-8.837 0-16 7.163-16 16v392h276v-392c0-8.837-7.163-16-16-16z" fill="#f7f7f7"/><path d="m378.001 72.003v2c0 8.837-7.163 16-16 16h-209c-8.837 0-16 7.163-16 16v334c0 13.255-10.745 24-24 24h-11v-392c0-8.837 7.163-16 16-16h244c8.837 0 16 7.163 16 16z" fill="#fafafa"/><g fill="#75f6fc"><path d="m192.001 364.003h96v100h-96z"/><path d="m201.001 135.003h-18c-8.836 0-16-7.164-16-16s7.164-16 16-16h18c8.836 0 16 7.164 16 16s-7.163 16-16 16z"/><path d="m296.001 135.003h-18c-8.837 0-16-7.164-16-16s7.163-16 16-16h18c8.837 0 16 7.164 16 16s-7.163 16-16 16z"/><path d="m201.001 195.003h-18c-8.836 0-16-7.164-16-16s7.164-16 16-16h18c8.836 0 16 7.164 16 16s-7.163 16-16 16z"/><path d="m296.001 195.003h-18c-8.837 0-16-7.164-16-16s7.163-16 16-16h18c8.837 0 16 7.164 16 16s-7.163 16-16 16z"/><path d="m201.001 255.003h-18c-8.836 0-16-7.164-16-16s7.164-16 16-16h18c8.836 0 16 7.164 16 16s-7.163 16-16 16z"/><path d="m296.001 255.003h-18c-8.837 0-16-7.164-16-16s7.163-16 16-16h18c8.837 0 16 7.164 16 16s-7.163 16-16 16z"/><path d="m201.001 315.003h-18c-8.836 0-16-7.164-16-16s7.164-16 16-16h18c8.836 0 16 7.164 16 16s-7.163 16-16 16z"/><path d="m296.001 315.003h-18c-8.837 0-16-7.164-16-16s7.163-16 16-16h18c8.837 0 16 7.164 16 16s-7.163 16-16 16z"/></g><path d="m226.239 20.003h-59.238c-8.837 0-16 7.163-16 16v9.997c0 5.525-4.479 10.003-10.003 10.003h-9.997v-40c0-8.837 7.163-16 16-16 84.499 0 79.249-.017 80.088.03 12.762.715 11.932 19.97-.85 19.97z" fill="#fafafa"/><path d="m426.001 480.003h-372c-8.836 0-16-7.164-16-16s7.164-16 16-16h372c8.837 0 16 7.164 16 16s-7.163 16-16 16z" fill="#4d4e59"/><path d="m192.001 364.003h96v37h-96z" fill="#57f2f9"/><path d="m311.001 380.003h-142c-8.836 0-16-7.164-16-16s7.164-16 16-16h142c8.837 0 16 7.164 16 16s-7.163 16-16 16z" fill="#fafafa"/></svg>